<?xml version="1.0" encoding="UTF-8"?> <svg xmlns="http://www.w3.org/2000/svg" xmlns:svg="http://www.w3.org/2000/svg" xmlns:xlink="http://www.w3.org/1999/xlink" width="576" height="57.75" version="1.1" xml:space="preserve"> <style type="text/css"> .st0{clip-path:url(#SVGID_2_);fill:#1C1C1C;} .st1{clip-path:url(#SVGID_2_);fill:url(#SVGID_3_);} .st2{clip-path:url(#SVGID_2_);fill:#9E005D;} </style> <g id="svg_1"> <defs> <rect height="57.75" id="SVGID_1_" width="576"></rect> </defs> <path class="st0" d="m108.96,33.42l-5.33,0l0,12.76l1.99,0c2.94,0 6.13,0 8.27,-1.11c1.67,-0.88 2.71,-2.32 2.71,-4.87c0,-4.23 -2.63,-6.78 -7.64,-6.78zm-5.33,-10.21l2.31,0c5.88,0 9.07,-1.91 9.07,-5.74c0,-2.31 -0.8,-3.75 -1.99,-4.63c-1.83,-1.27 -4.7,-1.27 -7.8,-1.27l-1.59,0l0,11.64l0,0zm-12.89,-22.25l15.2,0c5.41,0 11.06,0.88 15.19,3.59c4.54,2.95 6.76,7.41 6.76,12.52c0,4.31 -2.38,8.45 -6.36,10.37c5.09,1.83 8.75,6.86 8.75,12.52c0,6.7 -4.14,11.97 -10.34,14.6c-4.22,1.75 -9.63,2.23 -14.64,2.23l-14.56,0l0,-55.83z" id="svg_3"></path> <rect class="st0" height="55.84" id="svg_4" width="12.89" x="136.25" y="0.96"></rect> <path class="st0" d="m183.26,34.78l0,-10.69l25.94,0l0,22.01c-6.05,8.22 -15.04,11.65 -24.82,11.65c-16.79,0 -29.6,-11.8 -29.6,-28.87c0,-16.28 13.21,-28.88 29.52,-28.88c9.78,0 17.74,3.91 24.18,11.41l-8.91,7.81c-3.82,-4.62 -8.91,-8.05 -15.19,-8.05c-9.23,0 -15.91,7.89 -15.91,17.71c0,10.28 6.12,17.7 15.83,17.7c4.05,0 8.67,-1.75 12.01,-4.94l0,-6.86l-13.05,0z" id="svg_5"></path> <path class="st0" d="m245.24,24.33l3.42,0c5.17,0 8.99,-1.84 8.99,-6.14c0,-3.91 -3.03,-6.55 -7.48,-6.55l-4.93,0l0,12.69zm-12.89,-23.37l18.14,0c9.14,0 20.84,4.7 20.84,16.99c0,8.37 -5.49,13.16 -11.54,15.55c4.94,6.86 13.05,18.19 16.79,23.29l-16.07,0l-14.72,-21.77l-0.55,0l0,21.77l-12.89,0l0,-55.83z" id="svg_6"></path> <polygon class="st0" id="svg_7" points="279.842,56.793 279.842,0.957 316.438,0.957 316.438,11.646 292.73,11.646 292.73,22.733 316.438,22.733 316.438,33.422 292.73,33.422 292.73,46.105 316.438,46.105 316.438,56.793 "></polygon> <path class="st0" d="m335.29,46.1l0.71,0c11.94,0 20.21,-4.54 20.21,-16.75c0,-11.56 -6.76,-17.7 -18.37,-17.7l-2.55,0l0,34.46l0,-0.01zm-12.89,-45.14l16.71,0c14.48,0 30.79,7.5 30.79,27.68c0,20.66 -16.07,28.15 -31.51,28.15l-15.99,0l0,-55.83z" id="svg_8"></path> <path class="st0" d="m408.32,41.64c0,5.58 -1.11,9.89 -3.97,12.6c-2.39,2.31 -5.97,3.51 -11.14,3.51c-2.95,0 -7.64,-0.88 -11.3,-2.87l4.06,-10.05c1.99,1.19 3.66,1.75 5.8,1.75c1.68,0 2.63,-0.64 3.11,-1.59c0.55,-1.2 0.55,-2.95 0.55,-4.79l0,-39.24l12.89,0l0,40.68z" id="svg_9"></path> <polygon class="st0" id="svg_10" points="415.8,56.793 415.8,0.957 452.397,0.957 452.397,11.646 428.687,11.646 428.687,22.733 452.397,22.733 452.397,33.422 428.687,33.422 428.687,46.105 452.397,46.105 452.397,56.793 "></polygon> <polygon class="st0" id="svg_11" points="458.361,56.793 458.361,0.957 471.248,0.957 471.248,46.105 493.525,46.105 493.525,56.793 "></polygon> <polygon class="st0" id="svg_12" points="495.91,56.793 495.91,0.957 508.8,0.957 508.8,46.105 531.074,46.105 531.074,56.793 "></polygon> <polygon class="st0" id="svg_13" points="540.544,56.793 540.544,33.581 522.961,0.957 538.793,0.957 547.464,19.782 547.623,19.782 557.329,0.957 572.285,0.957 553.431,34.06 553.431,56.793 "></polygon> <linearGradient gradientTransform="matrix(0.3062 0 0 -0.307 53.7498 495.9254)" gradientUnits="userSpaceOnUse" id="SVGID_3_" x1="-163.42" x2="67.88" y1="1549.11" y2="1549.11"> <stop offset="0" stop-color="#FB8B16"></stop> <stop offset="0.08" stop-color="#FB8B16"></stop> <stop offset="0.38" stop-color="#E52525"></stop> <stop offset="0.63" stop-color="#D01E3B"></stop> <stop offset="0.96" stop-color="#AC1360"></stop> <stop offset="1" stop-color="#AC1360"></stop> </linearGradient> <path class="st1" d="m39.12,0.75c-17.11,0 -31.38,11.38 -34.68,26.51c-0.48,2.16 -0.72,4.4 -0.72,6.69l0,0c7.46,-3.65 15.79,-5.94 23.68,-3.35c1.29,0.42 2.56,0.91 3.83,1.4c0.92,0.36 1.84,0.73 2.75,1.1c5.52,2.27 10.98,4.74 16.77,6.13c8.07,1.94 17.57,0.25 23.78,-5.27c0,-18.35 -15.85,-33.21 -35.41,-33.21l0,0z"></path> <path class="st2" d="m3.72,33.95c2.99,1.62 8.21,2.7 14.15,2.7c8.1,0 14.54,-2.85 16.11,-3.54c-1.58,-0.7 -5.14,-2.05 -6.58,-2.51c-8.43,-2.68 -15.97,-0.48 -23.67,3.35l-0.01,0z" id="svg_15"></path> <path class="st2" d="m25.64,51.38c0,0.36 -0.04,0.72 -0.1,1.07c-0.08,0.35 -0.18,0.69 -0.31,1.02c-0.14,0.33 -0.31,0.65 -0.51,0.94s-0.42,0.58 -0.67,0.83c-0.25,0.25 -0.53,0.48 -0.83,0.68c-0.29,0.2 -0.61,0.36 -0.94,0.5c-0.33,0.14 -0.67,0.24 -1.02,0.31c-0.35,0.07 -0.7,0.1 -1.06,0.1c-0.35,0 -0.71,-0.03 -1.06,-0.1c-0.35,-0.07 -0.69,-0.17 -1.02,-0.31c-0.33,-0.14 -0.64,-0.31 -0.94,-0.5c-0.3,-0.2 -0.57,-0.43 -0.82,-0.68c-0.25,-0.25 -0.48,-0.53 -0.68,-0.83c-0.2,-0.29 -0.36,-0.61 -0.5,-0.94c-0.14,-0.33 -0.24,-0.67 -0.31,-1.02c-0.07,-0.35 -0.1,-0.71 -0.1,-1.07c0,-0.35 0.03,-0.71 0.1,-1.06c0.07,-0.35 0.17,-0.69 0.31,-1.02c0.14,-0.33 0.3,-0.65 0.5,-0.94c0.2,-0.3 0.43,-0.58 0.68,-0.83c0.25,-0.25 0.52,-0.48 0.82,-0.68c0.3,-0.2 0.61,-0.37 0.94,-0.5c0.33,-0.14 0.67,-0.24 1.02,-0.31c0.35,-0.07 0.71,-0.11 1.06,-0.11c0.36,0 0.71,0.04 1.06,0.11c0.35,0.07 0.69,0.17 1.02,0.31c0.33,0.13 0.65,0.3 0.94,0.5c0.3,0.2 0.58,0.43 0.83,0.68c0.25,0.25 0.48,0.53 0.67,0.83s0.37,0.61 0.51,0.94c0.13,0.33 0.24,0.67 0.31,1.02c0.06,0.35 0.1,0.71 0.1,1.06z" id="svg_16"></path> <path class="st2" d="m44.56,51.38c0,0.36 -0.03,0.72 -0.1,1.07c-0.07,0.35 -0.18,0.69 -0.31,1.02c-0.14,0.33 -0.31,0.65 -0.51,0.94c-0.19,0.3 -0.42,0.58 -0.67,0.83c-0.26,0.25 -0.53,0.48 -0.83,0.68c-0.29,0.2 -0.61,0.36 -0.94,0.5c-0.33,0.14 -0.67,0.24 -1.02,0.31c-0.35,0.07 -0.7,0.1 -1.06,0.1c-0.35,0 -0.71,-0.03 -1.06,-0.1c-0.35,-0.07 -0.69,-0.17 -1.02,-0.31c-0.33,-0.14 -0.64,-0.31 -0.94,-0.5c-0.3,-0.2 -0.57,-0.43 -0.82,-0.68c-0.25,-0.25 -0.48,-0.53 -0.68,-0.83c-0.2,-0.29 -0.36,-0.61 -0.5,-0.94c-0.14,-0.33 -0.24,-0.67 -0.31,-1.02c-0.07,-0.35 -0.1,-0.71 -0.1,-1.07c0,-0.35 0.03,-0.71 0.1,-1.06c0.07,-0.35 0.17,-0.69 0.31,-1.02c0.14,-0.33 0.3,-0.65 0.5,-0.94c0.2,-0.3 0.43,-0.58 0.68,-0.83c0.25,-0.25 0.52,-0.48 0.82,-0.68c0.3,-0.2 0.61,-0.37 0.94,-0.5c0.33,-0.14 0.67,-0.24 1.02,-0.31c0.35,-0.07 0.71,-0.11 1.06,-0.11c0.36,0 0.71,0.04 1.06,0.11c0.35,0.07 0.69,0.17 1.02,0.31c0.33,0.13 0.65,0.3 0.94,0.5c0.3,0.2 0.57,0.43 0.83,0.68c0.25,0.25 0.48,0.53 0.67,0.83c0.2,0.29 0.37,0.61 0.51,0.94c0.13,0.33 0.24,0.67 0.31,1.02c0.06,0.35 0.1,0.71 0.1,1.06z" id="svg_17"></path> <path class="st2" d="m63.48,51.38c0,0.36 -0.03,0.72 -0.1,1.07c-0.07,0.35 -0.18,0.69 -0.31,1.02c-0.14,0.33 -0.31,0.65 -0.51,0.94c-0.19,0.3 -0.42,0.58 -0.67,0.83c-0.25,0.25 -0.53,0.48 -0.83,0.68c-0.29,0.2 -0.61,0.36 -0.93,0.5c-0.33,0.14 -0.68,0.24 -1.03,0.31c-0.35,0.07 -0.7,0.1 -1.06,0.1c-0.35,0 -0.71,-0.03 -1.06,-0.1c-0.35,-0.07 -0.69,-0.17 -1.02,-0.31c-0.33,-0.14 -0.64,-0.31 -0.94,-0.5c-0.29,-0.2 -0.57,-0.43 -0.82,-0.68c-0.25,-0.25 -0.48,-0.53 -0.68,-0.83c-0.2,-0.29 -0.36,-0.61 -0.5,-0.94c-0.14,-0.33 -0.24,-0.67 -0.31,-1.02c-0.07,-0.35 -0.1,-0.71 -0.1,-1.07c0,-0.35 0.03,-0.71 0.1,-1.06c0.07,-0.35 0.17,-0.69 0.31,-1.02c0.14,-0.33 0.3,-0.65 0.5,-0.94c0.2,-0.3 0.43,-0.58 0.68,-0.83c0.25,-0.25 0.52,-0.48 0.82,-0.68c0.3,-0.2 0.61,-0.37 0.94,-0.5c0.33,-0.14 0.67,-0.24 1.02,-0.31c0.35,-0.07 0.71,-0.11 1.06,-0.11c0.36,0 0.71,0.04 1.06,0.11c0.35,0.07 0.69,0.17 1.02,0.31c0.33,0.13 0.65,0.3 0.94,0.5c0.3,0.2 0.57,0.43 0.83,0.68c0.25,0.25 0.48,0.53 0.67,0.83c0.2,0.29 0.37,0.61 0.51,0.94c0.13,0.33 0.24,0.67 0.31,1.02c0.07,0.35 0.1,0.71 0.1,1.06z" id="svg_18" transform="matrix(1 0 0 1 0 0)"></path> </g> </svg> 