<svg width="154" height="39" viewBox="0 0 154 39" fill="none" xmlns="http://www.w3.org/2000/svg">
<path d="M46.7593 37.337C45.9834 37.5206 45.1748 37.6195 44.3428 37.6195H12.5144C8.42606 37.6195 4.79263 35.6298 2.51629 32.5637C0.93796 30.4564 0 27.8343 0 24.9973C0 18.3332 5.20397 12.8365 11.737 12.4285C14.6054 6.07034 20.8517 2 27.8365 2C32.1259 2 36.2626 3.566 39.4847 6.40771C42.4482 9.02033 44.4534 12.5415 45.1966 16.4C50.6654 16.7829 55 21.3836 55 26.9838C55 32.0381 51.4694 36.2779 46.7593 37.337ZM34.5674 18.578C34.5487 18.578 34.5316 18.5795 34.5129 18.5795H27.4455V4.29879C23.6578 4.38039 20.1365 5.824 17.4348 8.26087C17.4006 8.29226 17.3647 8.32207 17.3305 8.35345C17.2744 8.40523 17.2198 8.45858 17.1637 8.51193C15.5994 9.99791 14.3312 11.8275 13.4789 13.9239C13.4353 14.0306 13.3761 14.1263 13.3028 14.211C13.1081 14.4856 12.7949 14.6583 12.449 14.6598C9.4653 14.6787 6.77606 15.9795 4.89391 18.0382C3.25637 19.8725 2.25921 22.2906 2.25921 24.933C2.25921 30.6415 6.88513 35.2862 12.5721 35.2862H27.4439V30.9459H34.5113C34.53 30.9459 34.5472 30.9459 34.5659 30.9459C37.9578 30.9459 40.7093 28.178 40.7093 24.7635C40.7093 21.3491 37.9609 18.578 34.5674 18.578V18.578ZM20.378 19.5634C20.3593 19.5634 20.3422 19.5634 20.3235 19.5634C17.4707 19.5634 15.1585 21.8904 15.1585 24.762C15.1585 27.6335 17.4707 29.9605 20.3235 29.9605C20.3422 29.9605 20.3593 29.9605 20.378 29.9605H27.4455V30.9475H20.378C20.3593 30.9475 20.3422 30.9475 20.3235 30.9475C16.93 30.9475 14.18 28.1795 14.18 24.7651C14.18 21.3506 16.93 18.5827 20.3235 18.5827C20.3422 18.5827 20.3593 18.5842 20.378 18.5842H27.4455V19.5681H20.378V19.5649V19.5634ZM19.7252 26.7861V25.6909H18.6377C18.217 25.6909 17.8758 25.3488 17.8758 24.9251V24.5972C17.8758 24.1735 18.217 23.8315 18.6377 23.8315H19.7252V22.7362C19.7252 22.3125 20.0664 21.9705 20.4871 21.9705H20.8127C21.2334 21.9705 21.5746 22.3141 21.5746 22.7362V23.8315H22.6622C23.0829 23.8315 23.4241 24.1735 23.4241 24.5972V24.9251C23.4241 25.3488 23.0829 25.6909 22.6622 25.6909H21.5746V26.7861C21.5746 27.2098 21.2334 27.5519 20.8127 27.5519H20.4871C20.0664 27.5519 19.7252 27.2082 19.7252 26.7861ZM27.4455 27.5519V19.5634H34.622C37.4499 19.5948 39.7324 21.9093 39.7324 24.762C39.7324 27.6147 37.4499 29.9291 34.622 29.959H27.4455V27.5519ZM36.6334 24.4874C37.3252 24.4874 37.8846 23.924 37.8846 23.2305C37.8846 22.5369 37.3237 21.972 36.6334 21.972C35.9432 21.972 35.3823 22.5353 35.3823 23.2305C35.3823 23.9256 35.9432 24.4874 36.6334 24.4874ZM34.3508 27.6602C35.0426 27.6602 35.602 27.0968 35.602 26.4017C35.602 25.7066 35.0411 25.1433 34.3508 25.1433C33.6606 25.1433 33.0997 25.7066 33.0997 26.4017C33.0997 27.0968 33.6591 27.6602 34.3508 27.6602ZM30.2173 27.6602C30.9091 27.6602 31.4684 27.0968 31.4684 26.4017C31.4684 25.7066 30.9075 25.1433 30.2173 25.1433C29.5271 25.1433 28.9661 25.7066 28.9661 26.4017C28.9661 27.0968 29.5255 27.6602 30.2173 27.6602Z" fill="white"/>
<path d="M32.6109 21.9712C33.2996 21.9712 33.8589 22.5345 33.8589 23.2296C33.8589 23.9248 33.2996 24.4865 32.6109 24.4865C31.9222 24.4865 31.3613 23.9232 31.3613 23.2296C31.3613 22.5361 31.9207 21.9712 32.6109 21.9712Z" fill="#8A202A"/>
<path d="M69.7778 22.3566V11.9089H77.972V9H66.582V37.6798H69.7778V25.2655H76.3741V22.3566H69.7778Z" fill="white"/>
<path d="M91.8958 37.6798V34.7708H83.7015V9H80.5058V37.6798H91.8958Z" fill="white"/>
<path d="M104.798 31.9028L105.904 37.6798H109.1L103.61 9H98.9802L93.4901 37.6798H96.44L97.5462 31.9028H104.798ZM101.111 12.6055L104.347 29.1578H97.956L101.111 12.6055Z" fill="white"/>
<path d="M111.594 9V37.6798H114.79V25.4294H117.043C119.706 25.4294 121.222 26.4537 121.222 29.6904V34.1972C121.222 36.1229 121.386 36.8603 121.755 37.6798H124.992C124.459 36.6965 124.418 35.5083 124.418 34.2382V29.7723C124.418 26.6995 123.435 24.569 120.813 23.7906C123.271 23.0121 124.377 21.0455 124.377 17.8907V15.5554C124.377 11.2944 122.493 9 117.986 9H111.594ZM114.79 22.5205V11.9089H117.904C120.28 11.9089 121.222 13.261 121.222 15.8422V18.5872C121.222 21.701 119.706 22.5205 117.166 22.5205H114.79Z" fill="white"/>
<path d="M127.719 9V37.6798H130.914V9H127.719Z" fill="white"/>
<path d="M137.396 21.701V11.9089H146V9H134.2V37.6798H146V34.7708H137.396V24.569H144.402V21.701H137.396Z" fill="white"/>
</svg>
