<svg id="Layer_1" data-name="Layer 1" xmlns="http://www.w3.org/2000/svg" width="498.39007" height="90.45006" viewBox="0 0 498.39007 90.45006"><title>This Logo</title><path d="M168.04,69.73a11.62864,11.62864,0,0,1-.84,4.47,10.35515,10.35515,0,0,1-2.37,3.53,10.88136,10.88136,0,0,1-3.63,2.33,13.07015,13.07015,0,0,1-9.22,0,11.09888,11.09888,0,0,1-3.62-2.33,10.45249,10.45249,0,0,1-2.37-3.53,12.26021,12.26021,0,0,1,0-8.92,10.43767,10.43767,0,0,1,2.37-3.55,10.83743,10.83743,0,0,1,3.62-2.33,13.07015,13.07015,0,0,1,9.22,0,11.03982,11.03982,0,0,1,3.63,2.33,10.43765,10.43765,0,0,1,2.37,3.55A11.63549,11.63549,0,0,1,168.04,69.73Zm-11.44,7.3a7.682,7.682,0,0,0,2.93-.54,6.3317,6.3317,0,0,0,2.25-1.53,7.2,7.2,0,0,0,1.46-2.32,8.25377,8.25377,0,0,0,0-5.82,7.003,7.003,0,0,0-1.46-2.3,6.50975,6.50975,0,0,0-2.25-1.51,8.19174,8.19174,0,0,0-5.85,0,6.554,6.554,0,0,0-2.25,1.51,6.90123,6.90123,0,0,0-1.46,2.3,7.884,7.884,0,0,0-.53,2.91,7.68567,7.68567,0,0,0,.53,2.91,7.2,7.2,0,0,0,1.46,2.32,6.3317,6.3317,0,0,0,2.25,1.53A7.59444,7.59444,0,0,0,156.6,77.03Z" transform="translate(-5.74994 -7.40983)" style="fill:#f9d186"/><path d="M184.9,58.98h4.11V71.93a11.18459,11.18459,0,0,1-.59,3.73,7.49968,7.49968,0,0,1-1.74,2.83,7.69527,7.69527,0,0,1-2.83,1.79,10.91231,10.91231,0,0,1-3.85.62,11.49885,11.49885,0,0,1-3.91-.62,7.6555,7.6555,0,0,1-2.86-1.79,7.80027,7.80027,0,0,1-1.76-2.83,10.69141,10.69141,0,0,1-.61-3.73V58.98h4.21V71.93a5.40735,5.40735,0,0,0,1.22,3.75,5.73155,5.73155,0,0,0,7.39,0,5.40735,5.40735,0,0,0,1.22-3.75Z" transform="translate(-5.74994 -7.40983)" style="fill:#f9d186"/><path d="M197.98,80.48V62.9h-6.41V58.99h17.02V62.9h-6.41V80.48h-4.2Z" transform="translate(-5.74994 -7.40983)" style="fill:#f9d186"/><path d="M211.68,80.48V58.99h10.29a8.15745,8.15745,0,0,1,2.68.41,5.4958,5.4958,0,0,1,1.96,1.15,4.59315,4.59315,0,0,1,1.18,1.78,6.3305,6.3305,0,0,1,.39,2.25,5.49776,5.49776,0,0,1-.72,2.86,4.70777,4.70777,0,0,1-2.07,1.87v.07a5.217,5.217,0,0,1,2.78,1.96,5.55094,5.55094,0,0,1,1,3.34,6.5028,6.5028,0,0,1-.41,2.32,4.97959,4.97959,0,0,1-1.2,1.84,5.57965,5.57965,0,0,1-1.97,1.22,7.76132,7.76132,0,0,1-2.76.44H211.68Zm4.21-17.58v4.8h5.55a2.49281,2.49281,0,0,0,1.94-.69A2.43375,2.43375,0,0,0,224,65.3a2.64327,2.64327,0,0,0-.56-1.73,2.536,2.536,0,0,0-2.04-.67h-5.51Zm0,8.54V76.6h6.21a2.62038,2.62038,0,0,0,2.12-.76,2.69028,2.69028,0,0,0,.64-1.81,2.60112,2.60112,0,0,0-.71-1.84,2.65331,2.65331,0,0,0-2.02-.76h-6.24Z" transform="translate(-5.74994 -7.40983)" style="fill:#f9d186"/><path d="M254.01,69.73a11.62864,11.62864,0,0,1-.84,4.47,10.355,10.355,0,0,1-2.37,3.53,10.88136,10.88136,0,0,1-3.63,2.33,13.07015,13.07015,0,0,1-9.22,0,11.099,11.099,0,0,1-3.62-2.33,10.45249,10.45249,0,0,1-2.37-3.53,12.26035,12.26035,0,0,1,0-8.92,10.43767,10.43767,0,0,1,2.37-3.55,10.83753,10.83753,0,0,1,3.62-2.33,13.07015,13.07015,0,0,1,9.22,0,11.03982,11.03982,0,0,1,3.63,2.33,10.4375,10.4375,0,0,1,2.37,3.55A11.63549,11.63549,0,0,1,254.01,69.73Zm-11.44,7.3a7.682,7.682,0,0,0,2.93-.54,6.3317,6.3317,0,0,0,2.25-1.53,7.1997,7.1997,0,0,0,1.46-2.32,8.25377,8.25377,0,0,0,0-5.82,7.00263,7.00263,0,0,0-1.46-2.3,6.50966,6.50966,0,0,0-2.25-1.51,8.19174,8.19174,0,0,0-5.85,0,6.554,6.554,0,0,0-2.25,1.51,6.90123,6.90123,0,0,0-1.46,2.3,7.884,7.884,0,0,0-.53,2.91,7.68567,7.68567,0,0,0,.53,2.91,7.2,7.2,0,0,0,1.46,2.32,6.3317,6.3317,0,0,0,2.25,1.53A7.63051,7.63051,0,0,0,242.57,77.03Z" transform="translate(-5.74994 -7.40983)" style="fill:#f9d186"/><path d="M270.87,58.98h4.11V71.93a11.18459,11.18459,0,0,1-.59,3.73,7.49968,7.49968,0,0,1-1.74,2.83,7.69527,7.69527,0,0,1-2.83,1.79,10.91231,10.91231,0,0,1-3.85.62,11.49885,11.49885,0,0,1-3.91-.62,7.6555,7.6555,0,0,1-2.86-1.79,7.80041,7.80041,0,0,1-1.76-2.83,10.69141,10.69141,0,0,1-.61-3.73V58.98h4.21V71.93a5.40735,5.40735,0,0,0,1.22,3.75,5.73155,5.73155,0,0,0,7.39,0,5.40736,5.40736,0,0,0,1.22-3.75Z" transform="translate(-5.74994 -7.40983)" style="fill:#f9d186"/><path d="M292.43,80.48V67.53a5.29363,5.29363,0,0,0-1.23-3.73,5.81168,5.81168,0,0,0-7.4,0,5.29363,5.29363,0,0,0-1.23,3.73V80.48h-4.21V67.53a10.69222,10.69222,0,0,1,.61-3.73,7.79987,7.79987,0,0,1,1.76-2.83,7.65586,7.65586,0,0,1,2.86-1.79,11.25917,11.25917,0,0,1,3.91-.62,11.49885,11.49885,0,0,1,3.91.62,7.65562,7.65562,0,0,1,2.86,1.79,7.80041,7.80041,0,0,1,1.76,2.83,10.92833,10.92833,0,0,1,.61,3.73V80.48Z" transform="translate(-5.74994 -7.40983)" style="fill:#f9d186"/><path d="M300.55,80.48V58.99h7.62a14.68,14.68,0,0,1,4.96.77,9.77892,9.77892,0,0,1,3.58,2.19,9.31146,9.31146,0,0,1,2.19,3.4,13.42152,13.42152,0,0,1,0,8.79,9.18289,9.18289,0,0,1-2.19,3.39,9.91495,9.91495,0,0,1-3.58,2.19,14.43569,14.43569,0,0,1-4.96.77h-7.62Zm7.62-3.88a9.36144,9.36144,0,0,0,3.22-.49,6.03083,6.03083,0,0,0,2.23-1.38,5.42448,5.42448,0,0,0,1.31-2.15,8.9623,8.9623,0,0,0,.43-2.84,6.99622,6.99622,0,0,0-1.74-4.98q-1.74-1.86-5.46-1.86h-3.42V76.6h3.43Z" transform="translate(-5.74994 -7.40983)" style="fill:#f9d186"/><path d="M342.22,65.2a2.71652,2.71652,0,0,0-.92-2.04,3.87868,3.87868,0,0,0-2.66-.79,3.74,3.74,0,0,0-2.66.84,2.68567,2.68567,0,0,0-.89,2.02,1.683,1.683,0,0,0,.49,1.31,3.78486,3.78486,0,0,0,1.3.76,9.6927,9.6927,0,0,0,1.84.46q1.035.165,2.1.39a17.24872,17.24872,0,0,1,2.1.59,6.00286,6.00286,0,0,1,1.84,1.02,4.70212,4.70212,0,0,1,1.3,1.73,6.35485,6.35485,0,0,1,.49,2.68,6.63017,6.63017,0,0,1-.58,2.83,5.94628,5.94628,0,0,1-1.63,2.12,7.64755,7.64755,0,0,1-2.51,1.35,10.49577,10.49577,0,0,1-3.27.48,10.70427,10.70427,0,0,1-3.24-.46,7.3358,7.3358,0,0,1-2.5-1.31,6.19465,6.19465,0,0,1-1.63-2.09,6.56286,6.56286,0,0,1-.62-2.78h4.11a2.64719,2.64719,0,0,0,.99,2.07,4.44972,4.44972,0,0,0,2.89.79,4.53562,4.53562,0,0,0,2.93-.79,2.55181,2.55181,0,0,0,.95-2.07,1.74214,1.74214,0,0,0-.49-1.31,3.25922,3.25922,0,0,0-1.3-.77,10.7915,10.7915,0,0,0-1.82-.44q-1.02-.165-2.1-.39a16.29094,16.29094,0,0,1-2.1-.59,5.92518,5.92518,0,0,1-1.82-1.03,4.87337,4.87337,0,0,1-1.3-1.73,6.25806,6.25806,0,0,1-.49-2.66,6.78731,6.78731,0,0,1,.54-2.73,6.2412,6.2412,0,0,1,1.54-2.15,7.12916,7.12916,0,0,1,2.4-1.4,9.26707,9.26707,0,0,1,3.11-.49,9.10311,9.10311,0,0,1,3.04.48A7.05706,7.05706,0,0,1,344,60.45a6.33149,6.33149,0,0,1,1.56,2.09,6.95113,6.95113,0,0,1,.64,2.69H342.22Z" transform="translate(-5.74994 -7.40983)" style="fill:#00659c"/><path d="M371.67,69.73a11.62883,11.62883,0,0,1-.84,4.47,10.35474,10.35474,0,0,1-2.37,3.53,10.88141,10.88141,0,0,1-3.63,2.33,13.07007,13.07007,0,0,1-9.22,0,11.09924,11.09924,0,0,1-3.62-2.33,10.45189,10.45189,0,0,1-2.37-3.53,12.2598,12.2598,0,0,1,0-8.92,10.43707,10.43707,0,0,1,2.37-3.55,10.83747,10.83747,0,0,1,3.62-2.33,13.07007,13.07007,0,0,1,9.22,0,11.03956,11.03956,0,0,1,3.63,2.33,10.43724,10.43724,0,0,1,2.37,3.55A11.63456,11.63456,0,0,1,371.67,69.73Zm-11.44,7.3a7.68191,7.68191,0,0,0,2.93-.54,6.33152,6.33152,0,0,0,2.25-1.53,7.20048,7.20048,0,0,0,1.46-2.32,8.25348,8.25348,0,0,0,0-5.82,7.0024,7.0024,0,0,0-1.46-2.3,6.50957,6.50957,0,0,0-2.25-1.51,8.19163,8.19163,0,0,0-5.85,0,6.55385,6.55385,0,0,0-2.25,1.51,6.90145,6.90145,0,0,0-1.46,2.3,7.88438,7.88438,0,0,0-.53,2.91,7.68432,7.68432,0,0,0,.53,2.91,7.19926,7.19926,0,0,0,1.46,2.32,6.33152,6.33152,0,0,0,2.25,1.53A7.5942,7.5942,0,0,0,360.23,77.03Z" transform="translate(-5.74994 -7.40983)" style="fill:#00659c"/><path d="M374.99,80.48V58.99h4.21V76.61h11.24v3.88H374.99Z" transform="translate(-5.74994 -7.40983)" style="fill:#00659c"/><path d="M407.03,58.98h4.11V71.93a11.18407,11.18407,0,0,1-.59,3.73,7.38519,7.38519,0,0,1-4.57,4.62,10.89368,10.89368,0,0,1-3.84.62,11.49855,11.49855,0,0,1-3.91-.62,7.65522,7.65522,0,0,1-2.86-1.79,7.80027,7.80027,0,0,1-1.76-2.83,10.69187,10.69187,0,0,1-.61-3.73V58.98h4.21V71.93a5.40739,5.40739,0,0,0,1.22,3.75,5.73161,5.73161,0,0,0,7.39,0,5.40739,5.40739,0,0,0,1.22-3.75V58.98Z" transform="translate(-5.74994 -7.40983)" style="fill:#00659c"/><path d="M420.11,80.48V62.9H413.7V58.99h17.02V62.9h-6.41V80.48H420.11Z" transform="translate(-5.74994 -7.40983)" style="fill:#00659c"/><path d="M433.85,80.48V58.99h4.21V80.48Z" transform="translate(-5.74994 -7.40983)" style="fill:#00659c"/><path d="M464.28,69.73a11.62865,11.62865,0,0,1-.84,4.47,10.35472,10.35472,0,0,1-2.37,3.53,10.88136,10.88136,0,0,1-3.63,2.33,13.07007,13.07007,0,0,1-9.22,0,11.09931,11.09931,0,0,1-3.62-2.33,10.35474,10.35474,0,0,1-2.37-3.53,12.2598,12.2598,0,0,1,0-8.92,10.43724,10.43724,0,0,1,2.37-3.55,10.83753,10.83753,0,0,1,3.62-2.33,13.07007,13.07007,0,0,1,9.22,0,11.0395,11.0395,0,0,1,3.63,2.33,10.43721,10.43721,0,0,1,2.37,3.55A11.6355,11.6355,0,0,1,464.28,69.73Zm-11.44,7.3a7.682,7.682,0,0,0,2.93-.54,6.3317,6.3317,0,0,0,2.25-1.53,7.20062,7.20062,0,0,0,1.46-2.32,8.25334,8.25334,0,0,0,0-5.82,7.00238,7.00238,0,0,0-1.46-2.3,6.50975,6.50975,0,0,0-2.25-1.51,8.19166,8.19166,0,0,0-5.85,0,6.554,6.554,0,0,0-2.25,1.51,7.00382,7.00382,0,0,0-1.46,2.3,8.25334,8.25334,0,0,0,0,5.82,7.1996,7.1996,0,0,0,1.46,2.32,6.3317,6.3317,0,0,0,2.25,1.53A7.59407,7.59407,0,0,0,452.84,77.03Z" transform="translate(-5.74994 -7.40983)" style="fill:#00659c"/><path d="M481.17,80.48V67.53a5.29362,5.29362,0,0,0-1.23-3.73,5.81168,5.81168,0,0,0-7.4,0,5.29362,5.29362,0,0,0-1.23,3.73V80.48H467.1V67.53a10.69222,10.69222,0,0,1,.61-3.73,7.79946,7.79946,0,0,1,1.76-2.83,7.65586,7.65586,0,0,1,2.86-1.79,11.25911,11.25911,0,0,1,3.91-.62,11.49855,11.49855,0,0,1,3.91.62,7.65538,7.65538,0,0,1,2.86,1.79,7.80041,7.80041,0,0,1,1.76,2.83,10.6921,10.6921,0,0,1,.61,3.73V80.48Z" transform="translate(-5.74994 -7.40983)" style="fill:#00659c"/><path d="M499.81,65.2a2.71678,2.71678,0,0,0-.92-2.04,3.87862,3.87862,0,0,0-2.66-.79,3.73989,3.73989,0,0,0-2.66.84,2.68558,2.68558,0,0,0-.89,2.02,1.683,1.683,0,0,0,.49,1.31,3.7852,3.7852,0,0,0,1.3.76,9.69245,9.69245,0,0,0,1.84.46q1.035.165,2.1.39a17.2464,17.2464,0,0,1,2.1.59,6.00337,6.00337,0,0,1,1.84,1.02,4.70275,4.70275,0,0,1,1.3,1.73,6.3547,6.3547,0,0,1,.49,2.68,6.62973,6.62973,0,0,1-.58,2.83,5.94642,5.94642,0,0,1-1.63,2.12,7.64715,7.64715,0,0,1-2.51,1.35,10.40609,10.40609,0,0,1-3.27.48,10.70432,10.70432,0,0,1-3.24-.46,7.43022,7.43022,0,0,1-2.5-1.31,6.195,6.195,0,0,1-1.63-2.09,6.71636,6.71636,0,0,1-.62-2.78h4.11a2.64716,2.64716,0,0,0,.99,2.07,4.44962,4.44962,0,0,0,2.89.79,4.53571,4.53571,0,0,0,2.93-.79,2.55181,2.55181,0,0,0,.95-2.07,1.742,1.742,0,0,0-.49-1.31,3.25943,3.25943,0,0,0-1.3-.77,10.79139,10.79139,0,0,0-1.82-.44q-1.02-.165-2.1-.39a16.2914,16.2914,0,0,1-2.1-.59,5.92558,5.92558,0,0,1-1.82-1.03,4.874,4.874,0,0,1-1.3-1.73,6.2576,6.2576,0,0,1-.49-2.66,6.788,6.788,0,0,1,.54-2.73,6.24177,6.24177,0,0,1,1.54-2.15,7.12847,7.12847,0,0,1,2.4-1.4,9.26694,9.26694,0,0,1,3.11-.49,9.1028,9.1028,0,0,1,3.04.48,7.05712,7.05712,0,0,1,2.35,1.35,6.33173,6.33173,0,0,1,1.56,2.09,6.952,6.952,0,0,1,.64,2.69h-3.98Z" transform="translate(-5.74994 -7.40983)" style="fill:#00659c"/><path d="M136,51.77,73.73,10.45a1.65576,1.65576,0,0,1-.67-1.87,1.63784,1.63784,0,0,1,1.59-1.17l123.18.68a1.658,1.658,0,0,1,.89,3.05ZM77.98,10.09,136.01,48.6l58.45-37.87Z" transform="translate(-5.74994 -7.40983)" style="fill:#00659c"/><path d="M5.75,80.75h0a2.79968,2.79968,0,0,1,2.81-2.78l1.9.01a2.79971,2.79971,0,0,1,2.78,2.81h0a2.79968,2.79968,0,0,1-2.81,2.78l-1.9-.01A2.79332,2.79332,0,0,1,5.75,80.75Z" transform="translate(-5.74994 -7.40983)" style="fill:#f9d186"/><path d="M61.57,93a2.79971,2.79971,0,0,0-2.78-2.81l-1.9-.01a2.795,2.795,0,0,0-.03,5.59l1.9.01A2.80613,2.80613,0,0,0,61.57,93Z" transform="translate(-5.74994 -7.40983)" style="fill:#f9d186"/><path d="M49.36,57.58a2.7997,2.7997,0,0,0-2.78-2.81l-1.9-.01a2.795,2.795,0,1,0-.03,5.59l1.9.01A2.7933,2.7933,0,0,0,49.36,57.58Z" transform="translate(-5.74994 -7.40983)" style="fill:#f9d186"/><path d="M35.18,57.5a2.7997,2.7997,0,0,0-2.78-2.81l-7.09-.04a2.795,2.795,0,1,0-.03,5.59l7.09.04A2.8061,2.8061,0,0,0,35.18,57.5Z" transform="translate(-5.74994 -7.40983)" style="fill:#f9d186"/><path d="M125.5,73.68,201.04,14,136.32,55.98,72.7,14.1C73.85,15.2,125.5,73.68,125.5,73.68Z" transform="translate(-5.74994 -7.40983)" style="fill:#f9d186"/><path d="M201.67,56.77l.23-42.01a1.33,1.33,0,1,0-2.66-.02l-.23,42.02h2.66Z" transform="translate(-5.74994 -7.40983)" style="fill:#00659c"/><path d="M198.87,82.7l-.07,12.5L70.73,94.49a1.30753,1.30753,0,0,1-.95-.4,1.37974,1.37974,0,0,1-.39-.96v-.36a1.3075,1.3075,0,0,1,.4-.95,1.37971,1.37971,0,0,1,.96-.39l20.19.11a4.101,4.101,0,0,0,2.96-1.21,4.14736,4.14736,0,0,0,1.24-2.95v-.34a4.19315,4.19315,0,0,0-4.16-4.21L23.1,82.46a1.35932,1.35932,0,0,1-1.35-1.36v-.63a1.36578,1.36578,0,0,1,1.36-1.35l77.98.43a4.18507,4.18507,0,0,0,.05-8.37l-53.87-.3a1.34806,1.34806,0,0,1-.95-.4,1.37972,1.37972,0,0,1-.39-.96v-.34a1.3593,1.3593,0,0,1,1.36-1.35l29.93.17a4.19319,4.19319,0,0,0,4.21-4.16v-.46a4.19318,4.19318,0,0,0-4.16-4.21l-18.4-.1a1.30754,1.30754,0,0,1-.95-.4,1.37972,1.37972,0,0,1-.39-.96v-.17a1.3075,1.3075,0,0,1,.4-.95,1.37971,1.37971,0,0,1,.96-.39l36.62.2a4.18251,4.18251,0,0,0,4.21-4.16v-.81a4.18241,4.18241,0,0,0-4.16-4.2l-35.64-.2a1.3658,1.3658,0,0,1-1.35-1.36,1.30754,1.30754,0,0,1,.4-.95,1.37974,1.37974,0,0,1,.96-.39l12.14.07a1.36679,1.36679,0,0,0,.94-.38,1.33274,1.33274,0,0,0,.39-.94l.16-28.2a1.33,1.33,0,1,0-2.66-.02l-.15,26.87-10.81-.06a4.01177,4.01177,0,0,0-4.03,3.99,4.01606,4.01606,0,0,0,3.99,4.03l35.64.2a1.555,1.555,0,0,1,1.08.45,1.50329,1.50329,0,0,1,.44,1.08v.81a1.51938,1.51938,0,0,1-1.53,1.52l-36.62-.2a4.01175,4.01175,0,0,0-4.03,3.99v.17a4.01175,4.01175,0,0,0,3.99,4.03l18.4.1a1.5279,1.5279,0,0,1,1.52,1.53v.46a1.51937,1.51937,0,0,1-1.53,1.52l-29.93-.17a4.016,4.016,0,0,0-4.03,3.99v.34a3.935,3.935,0,0,0,1.16,2.84,4.00579,4.00579,0,0,0,2.83,1.19l53.87.3a1.51937,1.51937,0,0,1,1.52,1.53,1.53651,1.53651,0,0,1-1.54,1.52l-77.98-.43a4.016,4.016,0,0,0-4.03,3.99v.63a4.01875,4.01875,0,0,0,3.99,4.04l67.88.37a1.52788,1.52788,0,0,1,1.52,1.53v.34a1.51937,1.51937,0,0,1-1.53,1.52l-20.19-.11a4.01174,4.01174,0,0,0-4.03,3.99v.36a3.9759,3.9759,0,0,0,1.16,2.84,4.02346,4.02346,0,0,0,2.83,1.19l129.4.71a1.34244,1.34244,0,0,0,1.34-1.32l.08-13.84H198.87Z" transform="translate(-5.74994 -7.40983)" style="fill:#00659c"/></svg>