<svg width="239" height="35" viewBox="0 0 239 35" fill="none" xmlns="http://www.w3.org/2000/svg">
<path d="M188.917 27.4873C187.52 27.4873 186.355 27.1379 185.423 26.5555C184.491 25.9732 183.676 25.1579 183.21 23.9932C182.628 22.9449 182.395 21.5473 182.395 20.0331V8.73538H187.403V19.2178C187.403 20.0331 187.52 20.732 187.869 21.4308C188.102 22.0132 188.568 22.479 189.034 22.8285C189.5 23.1779 190.198 23.2943 190.897 23.2943C191.596 23.2943 191.946 23.2943 192.411 23.0614C192.877 22.8285 193.227 22.5955 193.576 22.3626C193.926 22.0132 194.159 21.6637 194.391 21.1979C194.624 20.732 194.624 20.2661 194.624 19.8002V8.73538H199.633V27.1379H194.857V24.5755C194.624 24.8085 194.391 25.0414 194.159 25.2744C193.46 25.9732 192.761 26.5555 191.829 26.905C190.897 27.2544 189.966 27.4873 188.917 27.4873Z" fill="#0D121B"/>
<path d="M202.428 27.1379V8.73537H207.203V11.1813C207.32 11.0648 207.436 10.9483 207.553 10.8319C208.019 10.366 208.485 9.90009 209.067 9.55067C209.649 9.20126 210.232 8.96831 210.93 8.73537C211.513 8.50243 212.212 8.38596 212.794 8.38596C213.726 8.38596 214.658 8.50243 215.356 8.85184C216.172 9.20126 216.754 9.66714 217.336 10.2495C217.686 10.7154 218.035 11.1813 218.268 11.7636C218.501 11.2977 218.851 10.9483 219.2 10.5989C219.666 10.133 220.248 9.78362 220.831 9.4342C221.413 9.08479 221.995 8.85184 222.694 8.6189C223.276 8.38596 223.975 8.38596 224.558 8.38596C225.955 8.38596 227.236 8.6189 228.168 9.20126C229.1 9.78362 229.799 10.5989 230.381 11.7636C230.847 12.9284 231.08 14.326 231.08 15.9566V27.1379H226.072V16.306C226.072 15.4907 226.072 14.7919 225.722 14.2095C225.489 13.6272 225.14 13.2778 224.674 13.0448C224.208 12.8119 223.626 12.6954 222.927 12.6954C222.228 12.6954 221.879 12.6954 221.413 12.9284C220.947 13.0448 220.598 13.3942 220.248 13.6272C219.899 13.9766 219.666 14.326 219.433 14.6754C219.2 15.1413 219.2 15.6072 219.2 16.0731V27.0214H214.192V16.1896C214.192 15.3743 214.075 14.7919 213.842 14.2095C213.609 13.6272 213.26 13.2778 212.794 12.9284C212.328 12.6954 211.746 12.4625 211.163 12.4625C210.581 12.4625 210.115 12.4625 209.649 12.6954C209.183 12.8119 208.834 13.1613 208.485 13.3942C208.135 13.7437 207.902 14.0931 207.669 14.4425C207.436 14.9084 207.32 15.2578 207.32 15.8401V26.905H202.312L202.428 27.1379Z" fill="#0D121B"/>
<path d="M239 8.73538H233.992V27.1379H239V8.73538Z" fill="#0D121B"/>
<path d="M233.992 1.28119H239V6.173H236.554C235.156 6.173 234.108 5.00828 234.108 3.72709V1.28119H233.992Z" fill="#0D121B"/>
<path d="M164.225 27.1379V8.73538H169.467V22.3626H180.648V27.1379H164.225Z" fill="#0D121B"/>
<path d="M28.7685 0H6.63889C2.91179 0 0 2.91179 0 6.52241V28.4191C0 32.0297 2.91179 34.9415 6.63889 34.9415H28.7685C32.3791 34.9415 35.2909 32.0297 35.2909 28.4191V6.52241C35.2909 2.91179 32.3791 0 28.7685 0ZM3.37768 15.3743L6.87183 11.8801L8.61891 13.6272L5.12475 17.1213L3.37768 15.3743ZM8.85185 29.9332L6.05653 27.2544L11.4142 21.8967L14.2095 24.5755L8.85185 29.8168V29.9332ZM11.5307 14.6754L21.3143 4.89181L26.3226 9.90009L16.539 19.6837L11.5307 14.6754ZM24.9249 25.9732L21.3143 22.479L28.3026 15.6072L31.9132 19.1014L24.9249 25.9732Z" fill="#0D121B"/>
<path d="M44.2592 27.0214V4.89182H46.0062V15.0249H60.5652V4.89182H62.3123V27.1379H60.5652V16.539H46.0062V27.1379H44.2592V27.0214Z" fill="#0D121B"/>
<path d="M67.903 6.05653V3.61063H69.4171V6.05653H67.903ZM67.903 27.0214V10.0166H69.4171V27.0214H67.903Z" fill="#0D121B"/>
<path d="M74.309 27.0214V10.0166H75.4737V13.0448H75.8232C75.8232 12.5789 76.1726 11.9966 76.4055 11.5307C76.7549 11.0648 77.1043 10.5989 77.6867 10.2495C78.2691 9.90009 78.9679 9.66714 79.7832 9.66714C80.5985 9.66714 80.3655 9.66714 80.5985 9.66714C80.8314 9.66714 81.0644 9.66714 81.1808 9.78362V11.1813H80.2491C79.4338 11.1813 78.7349 11.4142 78.1526 11.7636C77.5702 12.1131 77.1043 12.5789 76.7549 13.1613C76.4055 13.7437 76.1726 14.326 76.0561 15.0248C75.9396 15.7237 75.8232 16.4225 75.8232 17.0049V27.1379H74.309V27.0214Z" fill="#0D121B"/>
<path d="M90.149 27.4873C88.5184 27.4873 87.2372 27.1379 86.0725 26.5556C84.9078 25.9732 84.0925 24.9249 83.5101 23.6438C82.9278 22.3626 82.5784 20.6155 82.5784 18.6355C82.5784 16.6555 82.8113 14.9084 83.3937 13.6272C83.976 12.346 84.7913 11.2978 85.956 10.7154C87.1208 10.133 88.5184 9.78363 90.149 9.78363C91.7796 9.78363 93.0608 10.133 94.2255 10.7154C95.3903 11.2978 96.0891 12.2295 96.6714 13.3943C97.2538 14.559 97.4867 15.9566 97.4867 17.4708V19.1014H84.209C84.209 20.8484 84.4419 22.2461 84.9078 23.1779C85.3737 24.2261 86.0725 24.9249 87.0043 25.3908C87.9361 25.8567 88.9843 26.0897 90.149 26.0897C91.3137 26.0897 92.0126 25.9732 92.7114 25.7403C93.4102 25.5073 93.9926 25.1579 94.4585 24.692C94.9244 24.2261 95.2738 23.7602 95.5067 23.1779C95.7397 22.5955 95.8561 22.0132 95.8561 21.5473H97.3703C97.3703 22.2461 97.2538 22.9449 96.9044 23.6438C96.555 24.3426 96.2056 25.0414 95.6232 25.6238C95.0408 26.2061 94.342 26.672 93.4102 27.0214C92.4785 27.3709 91.3137 27.6038 90.0326 27.6038L90.149 27.4873ZM84.3254 17.5872H95.9726C95.9726 16.306 95.8561 15.2578 95.5067 14.4425C95.2738 13.6272 94.8079 12.9284 94.2255 12.4625C93.6432 11.9966 93.0608 11.5307 92.362 11.4142C91.6632 11.1813 90.8479 11.0648 90.149 11.0648C88.9843 11.0648 87.9361 11.2978 87.1208 11.7636C86.3055 12.2295 85.6066 12.9284 85.1407 13.8601C84.6749 14.7919 84.4419 16.0731 84.3254 17.5872Z" fill="#0D121B"/>
<path d="M106.106 27.0215L99.5833 4.77536H101.447L105.989 20.732C105.989 21.0814 106.222 21.4308 106.339 21.8967C106.455 22.3626 106.688 22.9449 106.804 23.4108C106.921 23.9932 107.037 24.4591 107.154 24.925H107.503C107.503 24.5755 107.62 24.2261 107.736 23.8767C107.736 23.5273 107.853 23.0614 107.969 22.712C107.969 22.3626 108.202 21.8967 108.202 21.5473C108.202 21.1979 108.435 20.8485 108.435 20.732L112.628 4.77536H114.958L119.15 20.732C119.15 21.0814 119.383 21.4308 119.5 21.8967C119.616 22.3626 119.733 22.9449 119.966 23.4108C120.082 23.9932 120.199 24.4591 120.315 24.925H120.548C120.548 24.5755 120.781 24.2261 120.781 23.8767C120.781 23.5273 121.014 23.0614 121.131 22.712C121.247 22.3626 121.363 21.8967 121.48 21.5473C121.596 21.1979 121.596 20.9649 121.713 20.732L126.255 4.77536H128.002L121.48 27.0215H119.034L114.841 11.1813C114.841 10.8319 114.725 10.4825 114.608 9.90012C114.608 9.43423 114.375 8.85187 114.259 8.38598C114.142 7.80362 114.026 7.33774 113.909 6.87185H113.676C113.676 7.33774 113.443 7.80362 113.327 8.26951C113.21 8.85187 113.094 9.31776 112.977 9.78364C112.861 10.2495 112.745 10.7154 112.628 11.0648L108.552 26.905H106.106V27.0215Z" fill="#0D121B"/>
<path d="M130.914 6.05653V3.61063H132.428V6.05653H130.914ZM130.914 27.0214V10.0166H132.428V27.0214H130.914Z" fill="#0D121B"/>
<path d="M140.698 27.3709C140.115 27.3709 139.533 27.3709 139.184 27.0215C138.834 26.7885 138.485 26.4391 138.368 26.0897C138.252 25.6238 138.135 25.1579 138.135 24.5755V11.4142H135.689V10.0166H138.135L138.485 5.24124H139.649V10.0166H143.26V11.4142H139.649V24.1097C139.649 24.8085 139.649 25.2744 139.882 25.6238C140.115 25.9732 140.465 26.0897 141.047 26.0897H143.26V27.0215C143.027 27.0215 142.794 27.2544 142.445 27.2544C142.212 27.2544 141.862 27.2544 141.63 27.3709C141.397 27.3709 141.047 27.3709 140.814 27.3709H140.698Z" fill="#0D121B"/>
<path d="M146.521 27.0214V3.61063H148.035V12.4625H148.268C148.851 11.7636 149.317 11.1813 150.016 10.7154C150.598 10.366 151.297 10.0166 151.996 9.9001C152.694 9.78363 153.393 9.66715 154.208 9.66715C155.373 9.66715 156.305 9.78363 157.12 10.133C157.936 10.4825 158.518 11.0648 158.984 11.8801C159.45 12.6954 159.683 13.7437 159.683 15.1413V27.1379H158.169V15.2578C158.169 14.326 158.169 13.6272 157.819 13.1613C157.586 12.5789 157.353 12.2295 156.887 11.8801C156.538 11.6472 156.072 11.4142 155.49 11.2978C155.024 11.1813 154.441 11.0648 153.859 11.0648C152.927 11.0648 151.996 11.2978 151.064 11.7636C150.132 12.2295 149.433 12.8119 148.851 13.7437C148.268 14.559 148.035 15.7237 148.035 17.0049V27.1379H146.521V27.0214Z" fill="#0D121B"/>
</svg>
